# Exported from Wings 3D 1.4.1
mtllib engine.mtl
o engine
#64 vertices, 50 faces
v 0.90000000 1.1533201e-17 -0.18767079
v 0.83149158 -0.34441509 -0.18767079
v 0.63639610 -0.63639610 -0.18767079
v 0.34441509 -0.83149158 -0.18767079
v 5.5107286e-17 -0.90000000 -0.18767079
v -0.34441509 -0.83149158 -0.18767079
v -0.63639610 -0.63639610 -0.18767079
v -0.83149158 -0.34441509 -0.18767079
v -0.90000000 -9.8681371e-17 -0.18767079
v -0.83149158 0.34441509 -0.18767079
v -0.63639610 0.63639610 -0.18767079
v -0.34441509 0.83149158 -0.18767079
v -1.6532186e-16 0.90000000 -0.18767079
v 0.34441509 0.83149158 -0.18767079
v 0.63639610 0.63639610 -0.18767079
v 0.83149158 0.34441509 -0.18767079
v 0.50000000 -4.9697117e-17 -0.99767079
v 0.46193977 -0.19134172 -0.99767079
v 0.35355339 -0.35355339 -0.99767079
v 0.19134172 -0.46193977 -0.99767079
v 3.0615159e-17 -0.50000000 -0.99767079
v -0.19134172 -0.46193977 -0.99767079
v -0.35355339 -0.35355339 -0.99767079
v -0.46193977 -0.19134172 -0.99767079
v -0.50000000 -1.1092743e-16 -0.99767079
v -0.46193977 0.19134172 -0.99767079
v -0.35355339 0.35355339 -0.99767079
v -0.19134172 0.46193977 -0.99767079
v -9.1845477e-17 0.50000000 -0.99767079
v 0.19134172 0.46193977 -0.99767079
v 0.35355339 0.35355339 -0.99767079
v 0.46193977 0.19134172 -0.99767079
v 0.79425201 8.3185449e-18 -0.15340844
v 0.73379317 -0.30394708 -0.15340844
v 0.56162098 -0.56162098 -0.15340844
v 0.30394708 -0.73379317 -0.15340844
v 5.5107286e-17 -0.79425201 -0.15340844
v -0.30394708 -0.73379317 -0.15340844
v -0.56162098 -0.56162098 -0.15340844
v -0.73379317 -0.30394708 -0.15340844
v -0.79425201 -7.9393437e-17 -0.15340844
v -0.73379317 0.30394708 -0.15340844
v -0.56162098 0.56162098 -0.15340844
v -0.30394708 0.73379317 -0.15340844
v -1.6049987e-16 0.79425201 -0.15340844
v 0.30394708 0.73379317 -0.15340844
v 0.56162098 0.56162098 -0.15340844
v 0.73379317 0.30394708 -0.15340844
v 0.42213233 -1.6010612e-17 -0.90695079
v 0.38999942 -0.16154305 -0.90695079
v 0.29849263 -0.29849263 -0.90695079
v 0.16154305 -0.38999942 -0.90695079
v 2.7186261e-17 -0.42213233 -0.90695079
v -0.16154305 -0.38999942 -0.90695079
v -0.29849263 -0.29849263 -0.90695079
v -0.38999942 -0.16154305 -0.90695079
v -0.42213233 -7.9756610e-17 -0.90695079
v -0.38999942 0.16154305 -0.90695079
v -0.29849263 0.29849263 -0.90695079
v -0.16154305 0.38999942 -0.90695079
v -8.1558783e-17 0.42213233 -0.90695079
v 0.16154305 0.38999942 -0.90695079
v 0.29849263 0.29849263 -0.90695079
v 0.38999942 0.16154305 -0.90695079
vt 1.1991352e-2 0.31681871
vt 1.3528095e-2 0.37643719
vt 2.0738989e-2 0.25782545
vt 2.5303350e-2 0.43490145
vt 3.9509911e-2 0.20121822
vt 4.6965655e-2 0.49046645
vt 6.7743853e-2 0.14868661
vt 7.7868444e-2 0.54147374
vt 0.10459810 0.10179856
vt 0.11708935 0.58640086
vt 0.14897265 6.1953546e-2
vt 0.16345772 0.62390686
vt 0.16670490 0.96281274
vt 0.16679763 0.78896351
vt 0.17342512 0.32663293
vt 0.17424188 0.35831921
vt 0.17807435 0.29527895
vt 0.18050024 0.38939203
vt 0.18805080 0.26519311
vt 0.19201341 0.41892395
vt 0.19945000 3.0079531e-2
vt 0.19954303 3.0340853e-2
vt 0.20305669 0.23727339
vt 0.20420270 0.78574036
vt 0.20843775 0.44603351
vt 0.21558957 0.65287227
vt 0.22264414 0.21235313
vt 0.22928304 0.46991156
vt 0.23403402 0.95701106
vt 0.24049479 0.77612720
vt 0.24591337 0.36935008
vt 0.24622851 0.19117614
vt 0.25392709 0.48984540
vt 0.25470050 7.6272032e-3
vt 0.27192891 0.67243255
vt 0.27305326 0.17409252
vt 0.27310586 0.17437450
vt 0.27459065 0.76041097
vt 0.27954132 0.38604406
vt 0.28002261 0.38609698
vt 0.28163434 0.50524006
vt 0.29935977 0.93970738
vt 0.30241803 0.16215946
vt 0.30547263 0.73906076
vt 0.30947614 0.20753743
vt 0.31027205 0.40833432
vt 0.31157781 0.51563604
vt 0.33079414 0.68200387
vt 0.33221896 0.71271380
vt 0.33624260 0.43544629
vt 0.34286374 0.52072304
vt 0.35403133 0.68215651
vt 0.35715909 0.46662366
vt 0.36073233 0.91141817
vt 0.37000645 0.23758659
vt 0.37025871 0.64830093
vt 0.37050985 0.23765299
vt 0.37239724 0.50093586
vt 0.38041674 0.61215757
vt 0.38150221 0.53735875
vt 0.38420224 0.57480522
vt 0.41631988 0.87298778
vt 0.42495885 0.27768020
vt 0.46446328 0.82556326
vt 0.47170583 0.32648174
vt 0.50372556 0.77056013
vt 0.50935553 0.38260100
vt 0.53293484 0.70962009
vt 0.53678419 0.44436296
vt 0.55121929 0.64456205
vt 0.55317313 0.50992418
vt 0.55803318 0.57732781
vt 0.59156556 0.21331955
vt 0.60476743 0.27986797
vt 0.60483100 0.14676943
vt 0.61297483 0.21333009
vt 0.62454543 0.27168425
vt 0.62461321 0.15496872
vt 0.64244522 0.33628004
vt 0.64253711 9.0338251e-2
vt 0.65757572 0.32114191
vt 0.65768436 0.10547786
vt 0.67101718 0.53553805
vt 0.67834159 0.49871576
vt 0.67834159 0.57236034
vt 0.68744093 0.82459281
vt 0.69362467 0.85568056
vt 0.69362467 0.79350505
vt 0.69887628 0.37392938
vt 0.69894926 5.2603687e-2
vt 0.69919975 0.46749933
vt 0.69919975 0.60357677
vt 0.70705003 0.35414725
vt 0.70715853 7.2381760e-2
vt 0.71123447 0.88203549
vt 0.71123447 0.76715012
vt 0.73041618 0.44664118
vt 0.73041618 0.62443492
vt 0.73758940 0.89964529
vt 0.73758940 0.74954032
vt 0.76541002 0.36568842
vt 0.76543136 0.38709768
vt 0.76549268 3.9304690e-2
vt 0.76551402 6.0713955e-2
vt 0.76723847 0.43931677
vt 0.76723847 0.63175933
vt 0.76867716 0.90582903
vt 0.76867716 0.74335658
vt 0.79976492 0.89964529
vt 0.79976492 0.74954032
vt 0.80406076 0.44664118
vt 0.80406076 0.62443492
vt 0.82376551 0.35402061
vt 0.82387401 7.2255119e-2
vt 0.82611984 0.76715012
vt 0.82611984 0.88203549
vt 0.83197477 0.37379869
vt 0.83204776 5.2472996e-2
vt 0.83527719 0.46749933
vt 0.83527719 0.60357677
vt 0.84372964 0.85568056
vt 0.84372964 0.79350505
vt 0.84991338 0.82459281
vt 0.85613534 0.49871576
vt 0.85613534 0.57236034
vt 0.86345975 0.53553805
vt 0.87323968 0.32092451
vt 0.87334831 0.10526047
vt 0.88838693 0.33606412
vt 0.88847882 9.0122329e-2
vt 0.90631083 0.27143365
vt 0.90637861 0.15471812
vt 0.91794921 0.21307229
vt 0.92609304 0.27963294
vt 0.92615661 0.14653440
vt 0.93935848 0.21308283
vn 0.91817060 -3.2113718e-17 0.39618525
vn 0.84827902 -0.35136868 0.39618525
vn 0.64924466 -0.64924466 0.39618525
vn 0.35136868 -0.84827902 0.39618525
vn 0.0000000e+0 -0.91817060 0.39618525
vn -0.35136868 -0.84827902 0.39618525
vn -0.64924466 -0.64924466 0.39618525
vn -0.84827902 -0.35136868 0.39618525
vn -0.91817060 -1.4183559e-16 0.39618525
vn -0.84827902 0.35136868 0.39618525
vn -0.64924466 0.64924466 0.39618525
vn -0.35136868 0.84827902 0.39618525
vn -5.3522863e-17 0.91817060 0.39618525
vn 0.35136868 0.84827902 0.39618525
vn 0.64924466 0.64924466 0.39618525
vn 0.84827902 0.35136868 0.39618525
vn 0.68612784 -2.1574543e-17 -0.72748098
vn 0.63389947 -0.26256976 -0.72748098
vn 0.48516565 -0.48516565 -0.72748098
vn 0.26256976 -0.63389947 -0.72748098
vn -7.5510902e-17 -0.68612784 -0.72748098
vn -0.26256976 -0.63389947 -0.72748098
vn -0.48516565 -0.48516565 -0.72748098
vn -0.63389947 -0.26256976 -0.72748098
vn -0.68612784 -9.7085445e-17 -0.72748098
vn -0.63389947 0.26256976 -0.72748098
vn -0.48516565 0.48516565 -0.72748098
vn -0.26256976 0.63389947 -0.72748098
vn -1.2944726e-16 0.68612784 -0.72748098
vn 0.26256976 0.63389947 -0.72748098
vn 0.48516565 0.48516565 -0.72748098
vn 0.63389947 0.26256976 -0.72748098
vn -0.38335959 -2.7754906e-17 0.92359917
vn -0.35417808 0.14670536 0.92359917
vn -0.27107616 0.27107616 0.92359917
vn -0.14670536 0.35417808 0.92359917
vn 9.2516353e-18 0.38335959 0.92359917
vn 0.14670536 0.35417808 0.92359917
vn 0.27107616 0.27107616 0.92359917
vn 0.35417808 0.14670536 0.92359917
vn 0.38335959 9.9455080e-17 0.92359917
vn 0.35417808 -0.14670536 0.92359917
vn 0.27107616 -0.27107616 0.92359917
vn 0.14670536 -0.35417808 0.92359917
vn 4.6258177e-17 -0.38335959 0.92359917
vn -0.14670536 -0.35417808 0.92359917
vn -0.27107616 -0.27107616 0.92359917
vn -0.35417808 -0.14670536 0.92359917
vn -0.68612784 -2.1574543e-17 0.72748098
vn -0.63389947 0.26256976 0.72748098
vn -0.48516565 0.48516565 0.72748098
vn -0.26256976 0.63389947 0.72748098
vn 1.0787272e-17 0.68612784 0.72748098
vn 0.26256976 0.63389947 0.72748098
vn 0.48516565 0.48516565 0.72748098
vn 0.63389947 0.26256976 0.72748098
vn 0.68612784 1.6180907e-16 0.72748098
vn 0.63389947 -0.26256976 0.72748098
vn 0.48516565 -0.48516565 0.72748098
vn 0.26256976 -0.63389947 0.72748098
vn 5.3936358e-17 -0.68612784 0.72748098
vn -0.26256976 -0.63389947 0.72748098
vn -0.48516565 -0.48516565 0.72748098
vn -0.63389947 -0.26256976 0.72748098
g engine_engine
usemtl engine
s 1
f 1/42/1 17/30/17 32/38/32 16/54/16
f 1/136/1 33/133/33 34/132/34 2/135/2
f 2/29/2 18/24/18 17/30/17 1/42/1
f 2/135/2 34/132/34 35/128/35 3/130/3
f 3/13/3 19/14/19 18/24/18 2/29/2
f 3/130/3 35/128/35 36/114/36 4/118/4
f 4/55/4 20/39/20 19/31/19 3/45/3
f 4/118/4 36/114/36 37/104/37 5/103/5
f 5/63/5 21/46/21 20/40/20 4/57/4
f 5/103/5 37/104/37 38/94/38 6/90/6
f 6/65/6 22/50/22 21/46/21 5/63/5
f 6/90/6 38/94/38 39/82/39 7/80/7
f 7/67/7 23/53/23 22/50/22 6/65/6
f 7/80/7 39/82/39 40/78/40 8/75/8
f 8/69/8 24/58/24 23/53/23 7/67/7
f 8/75/8 40/78/40 41/76/41 9/73/9
f 9/71/9 25/60/25 24/58/24 8/69/8
f 9/73/9 41/76/41 42/77/42 10/74/10
f 10/72/10 26/61/26 25/60/25 9/71/9
f 10/74/10 42/77/42 43/81/43 11/79/11
f 11/70/11 27/59/27 26/61/26 10/72/10
f 11/79/11 43/81/43 44/93/44 12/89/12
f 12/68/12 28/56/28 27/59/27 11/70/11
f 12/89/12 44/93/44 45/101/45 13/102/13
f 13/66/13 29/52/29 28/56/28 12/68/12
f 13/102/13 45/101/45 46/113/46 14/117/14
f 14/64/14 30/49/30 29/52/29 13/66/13
f 14/117/14 46/113/46 47/127/47 15/129/15
f 15/62/15 31/44/31 30/49/30 14/64/14
f 15/129/15 47/127/47 48/131/48 16/134/16
f 16/54/16 32/38/32 31/44/31 15/62/15
f 16/134/16 48/131/48 33/133/33 1/136/1
f 18/84/18 19/91/19 20/97/20 21/105/21 22/111/22 23/119/23 24/124/24 25/126/25 26/125/26 27/120/27 28/112/28 29/106/29 30/98/30 31/92/31 32/85/32 17/83/17
f 33/7/33 49/23/49 50/19/50 34/5/34
f 34/5/34 50/19/50 51/17/51 35/3/35
f 35/3/35 51/17/51 52/15/52 36/1/36
f 36/1/36 52/15/52 53/16/53 37/2/37
f 37/2/37 53/16/53 54/18/54 38/4/38
f 38/4/38 54/18/54 55/20/55 39/6/39
f 39/6/39 55/20/55 56/25/56 40/8/40
f 40/8/40 56/25/56 57/28/57 41/10/41
f 41/10/41 57/28/57 58/33/58 42/12/42
f 42/12/42 58/33/58 59/41/59 43/26/43
f 43/26/43 59/41/59 60/47/60 44/35/44
f 44/35/44 60/47/60 61/51/61 45/48/45
f 45/34/45 61/43/61 62/36/62 46/21/46
f 46/22/46 62/37/62 63/32/63 47/11/47
f 47/11/47 63/32/63 64/27/64 48/9/48
f 48/9/48 64/27/64 49/23/49 33/7/33
f 49/123/49 64/121/64 63/116/63 62/109/62 61/107/61 60/99/60 59/95/59 58/87/58 57/86/57 56/88/56 55/96/55 54/100/54 53/108/53 52/110/52 51/115/51 50/122/50
