# Exported from Wings 3D 1.4.1
mtllib bs_corner1_side2.mtl
o bs_corner1_side2
#14 vertices, 12 faces
v -1.1102230e-16 -1.00000000 -1.00000000
v 1.00000000 -0.50000000 -1.00000000
v -1.00000000 -0.50000000 -1.00000000
v 1.00000000 0.50000000 -1.00000000
v -1.00000000 0.50000000 -1.00000000
v -1.1102230e-16 1.00000000 -1.00000000
v 1.00000000 -1.00000000 -6.1230318e-17
v -5.5511151e-17 -1.00000000 0.0000000e+0
v 1.00000000 1.00000000 -6.1230318e-17
v -5.5511151e-17 1.00000000 0.0000000e+0
v 1.00000000 -0.50000000 1.00000000
v -1.00000000 -0.50000000 1.00000000
v 1.00000000 0.50000000 1.00000000
v -1.00000000 0.50000000 1.00000000
vt 6.6802000e-2 0.60397531
vt 6.6822076e-2 0.60395431
vt 6.6850003e-2 0.36260453
vt 6.6850003e-2 0.52759030
vt 6.6895662e-2 0.77791902
vt 6.6908165e-2 0.94157833
vt 6.6915738e-2 0.77789802
vt 6.6928241e-2 0.94155733
vt 6.7803368e-2 0.13469673
vt 6.7803368e-2 0.29968250
vt 0.23062677 0.77791902
vt 0.23064685 0.77789802
vt 0.23314571 0.94163075
vt 0.23316579 0.94160975
vt 0.39682155 0.36260453
vt 0.39682155 0.52759030
vt 0.39777491 0.13469673
vt 0.39777491 0.29968250
vt 0.40191470 0.60397531
vt 0.40193477 0.60395431
vt 0.40193883 0.94161296
vt 0.40195890 0.94159196
vt 0.50744041 0.69248108
vt 0.50744041 0.85746685
vt 0.50762138 0.69246799
vt 0.50762138 0.85745376
vt 0.67242619 0.60998820
vt 0.67242619 0.93995974
vt 0.67260715 0.60997511
vt 0.67260715 0.93994665
vt 0.83741196 0.69248108
vt 0.83741196 0.85746685
vt 0.83759292 0.69246799
vt 0.83759292 0.85745376
vn -1.2754078e-2 -0.88733643 -0.46094620
vn 0.65425704 -0.37933555 -0.65425704
vn -0.73334923 -0.45323475 -0.50673185
vn 0.65425704 0.37933555 -0.65425704
vn -0.73334923 0.45323475 -0.50673185
vn -1.2754078e-2 0.88733643 -0.46094620
vn 0.46094620 -0.88733643 1.2754078e-2
vn -0.15638647 -0.97523666 0.15638647
vn 0.46094620 0.88733643 1.2754078e-2
vn -0.15638647 0.97523666 0.15638647
vn 0.50673185 -0.45323475 0.73334923
vn -0.53240740 -0.65809173 0.53240740
vn 0.50673185 0.45323475 0.73334923
vn -0.53240740 0.65809173 0.53240740
g bs_corner1_side2_bs_corner1_side2
usemtl bs_corner1_side2
s 1
f 1/7/1 7/14/7 8/12/8
f 2/25/2 1/29/1 3/33/3 5/34/5 6/30/6 4/26/4
f 2/31/2 4/32/4 9/28/9 13/24/13 11/23/11 7/27/7
f 3/9/3 12/17/12 14/18/14 5/10/5
f 6/5/6 5/1/5 14/19/14 10/11/10
f 6/5/6 9/13/9 4/6/4
f 7/14/7 1/7/1 2/8/2
f 8/12/8 12/20/12 3/2/3 1/7/1
f 10/11/10 9/13/9 6/5/6
f 10/11/10 14/19/14 13/21/13 9/13/9
f 11/22/11 12/20/12 8/12/8 7/14/7
f 13/16/13 14/4/14 12/3/12 11/15/11
