# Exported from Wings 3D 1.4.1
mtllib bs_corner4.mtl
o bs_corner4
#16 vertices, 14 faces
v -1.00000000 -1.00000000 0.0000000e+0
v -1.00000000 -0.50000000 -1.00000000
v -1.00000000 -0.50000000 1.00000000
v -1.00000000 0.50000000 -1.00000000
v -1.00000000 0.50000000 1.00000000
v -1.00000000 1.00000000 0.0000000e+0
v 0.0000000e+0 -1.00000000 -1.00000000
v 0.0000000e+0 -1.00000000 1.00000000
v 0.0000000e+0 1.00000000 -1.00000000
v 0.0000000e+0 1.00000000 1.00000000
v 1.00000000 -1.00000000 0.0000000e+0
v 1.00000000 -0.50000000 -1.00000000
v 1.00000000 -0.50000000 1.00000000
v 1.00000000 0.50000000 -1.00000000
v 1.00000000 0.50000000 1.00000000
v 1.00000000 1.00000000 0.0000000e+0
vt 0.34228889 0.69583333
vt 0.34228889 0.69621111
vt 0.34228889 0.69645556
vt 0.34228889 0.86250000
vt 0.34228889 0.86287778
vt 0.34228889 0.86312222
vt 0.34247778 8.8977778e-2
vt 0.34247778 8.9122222e-2
vt 0.34247778 0.25564444
vt 0.34247778 0.25578889
vt 0.34247778 0.42231111
vt 0.34247778 0.69583333
vt 0.34247778 0.86250000
vt 0.34247778 0.42245556
vt 0.50895556 0.61250000
vt 0.50895556 0.61287778
vt 0.50895556 0.61312222
vt 0.50895556 0.94583333
vt 0.50895556 0.94621111
vt 0.50895556 0.94645556
vt 0.50914444 8.8977778e-2
vt 0.50914444 8.9122222e-2
vt 0.50914444 0.42231111
vt 0.50914444 0.61250000
vt 0.50914444 0.94583333
vt 0.50914444 0.42245556
vt 0.67562222 0.69583333
vt 0.67562222 0.69621111
vt 0.67562222 0.69645556
vt 0.67562222 0.86250000
vt 0.67562222 0.86287778
vt 0.67562222 0.86312222
vt 0.67581111 8.8977778e-2
vt 0.67581111 8.9122222e-2
vt 0.67581111 0.25564444
vt 0.67581111 0.25578889
vt 0.67581111 0.42231111
vt 0.67581111 0.42245556
vt 0.67581111 0.69583333
vt 0.67581111 0.86250000
vn -0.56786837 -0.82311938 0.0000000e+0
vn -0.65425704 -0.37933555 -0.65425704
vn -0.65425704 -0.37933555 0.65425704
vn -0.65425704 0.37933555 -0.65425704
vn -0.65425704 0.37933555 0.65425704
vn -0.56786837 0.82311938 0.0000000e+0
vn 0.0000000e+0 -0.82311938 -0.56786837
vn 0.0000000e+0 -0.82311938 0.56786837
vn 0.0000000e+0 0.82311938 -0.56786837
vn 0.0000000e+0 0.82311938 0.56786837
vn 0.56786837 -0.82311938 0.0000000e+0
vn 0.65425704 -0.37933555 -0.65425704
vn 0.65425704 -0.37933555 0.65425704
vn 0.65425704 0.37933555 -0.65425704
vn 0.65425704 0.37933555 0.65425704
vn 0.56786837 0.82311938 0.0000000e+0
g bs_corner4_bs_corner4
usemtl bs_corner4
s 1
f 2/1/2 1/15/1 3/27/3 5/30/5 6/18/6 4/4/4
f 2/38/2 7/26/7 1/36/1
f 3/2/3 8/16/8 13/28/13 15/31/15 10/19/10 5/5/5
f 4/32/4 9/20/9 14/6/14 12/3/12 7/17/7 2/29/2
f 6/9/6 9/23/9 4/11/4
f 7/26/7 11/10/11 8/22/8 1/36/1
f 7/26/7 12/14/12 11/10/11
f 8/22/8 3/34/3 1/36/1
f 10/21/10 6/9/6 5/7/5
f 10/21/10 15/33/15 16/35/16
f 11/10/11 13/8/13 8/22/8
f 14/40/14 16/25/16 15/13/15 13/12/13 11/24/11 12/39/12
f 16/35/16 9/23/9 6/9/6 10/21/10
f 16/35/16 14/37/14 9/23/9
