# Exported from Wings 3D 1.4.1
mtllib bs_corner1.mtl
o bs_corner1
#12 vertices, 8 faces
v -1.00000000 -1.00000000 1.00000000
v 1.00000000 -1.00000000 1.00000000
v -1.00000000 1.00000000 1.00000000
v 1.00000000 1.00000000 1.00000000
v 1.00000000 -1.00000000 4.9960036e-16
v 1.00000000 1.00000000 4.9960036e-16
v -1.00000000 -1.00000000 -1.00000000
v 5.7191665e-18 -1.00000000 -1.00000000
v 1.00000000 -0.50000000 -1.00000000
v 1.00000000 0.50000000 -1.00000000
v -1.00000000 1.00000000 -1.00000000
v 5.7191665e-18 1.00000000 -1.00000000
vt 0.15243739 0.66817615
vt 0.15266350 0.66925187
vt 0.15300631 0.66933739
vt 0.15325125 0.83492622
vt 0.15330782 0.83484069
vt 0.15332631 1.00037407
vt 0.15354675 0.33635230
vt 0.15359762 4.3277765e-3
vt 0.15359762 0.33615163
vt 0.15375419 1.00051033
vt 0.31948565 1.00051504
vt 0.31950955 4.3277765e-3
vt 0.31950955 0.33615163
vt 0.31954222 1.00042952
vt 0.48495302 0.66925187
vt 0.48507573 1.00051504
vt 0.48513230 1.00042952
vt 0.48514395 0.66933739
vt 0.48525463 0.33645388
vt 0.48525463 0.66827773
vt 0.48537060 0.33635230
vt 0.48537060 0.66817615
vt 0.48542147 8.7283739e-2
vt 0.48542147 0.25319566
vt 0.48565953 8.7482105e-2
vt 0.48565953 0.25339403
vt 0.65157146 4.5261426e-3
vt 0.65157146 0.33634999
vt 0.81596911 0.66827773
vt 0.81707848 0.33645388
vt 0.81748338 4.5261426e-3
vt 0.81748338 0.33634999
vn -0.57735027 -0.57735027 0.57735027
vn 0.57735027 -0.57735027 0.57735027
vn -0.57735027 0.57735027 0.57735027
vn 0.57735027 0.57735027 0.57735027
vn 0.60325553 -0.77813807 -0.17488254
vn 0.60325553 0.77813807 -0.17488254
vn -0.57735027 -0.57735027 -0.57735027
vn 0.17488254 -0.77813807 -0.60325553
vn 0.65425704 -0.37933555 -0.65425704
vn 0.65425704 0.37933555 -0.65425704
vn -0.57735027 0.57735027 -0.57735027
vn 0.17488254 0.77813807 -0.60325553
g bs_corner1_bs_corner1
usemtl bs_corner1
s 1
f 1/18/1 7/16/7 8/11/8 5/4/5 2/3/2
f 2/21/2 4/22/4 3/1/3 1/7/1
f 2/8/2 5/12/5 9/23/9 10/24/10 6/13/6 4/9/4
f 3/29/3 11/20/11 7/19/7 1/30/1
f 4/2/4 6/5/6 12/14/12 11/17/11 3/15/3
f 5/4/5 8/11/8 9/10/9
f 7/31/7 11/32/11 12/28/12 10/26/10 9/25/9 8/27/8
f 12/14/12 6/5/6 10/6/10
