# Exported from Wings 3D 1.4.1
mtllib bs_corner2_next.mtl
o bs_corner2_next
#14 vertices, 10 faces
v -1.00000000 -1.00000000 0.0000000e+0
v -1.00000000 -1.00000000 1.00000000
v -1.00000000 -0.50000000 -1.00000000
v -1.00000000 0.50000000 -1.00000000
v -1.00000000 1.00000000 0.0000000e+0
v -1.00000000 1.00000000 1.00000000
v 0.0000000e+0 -1.00000000 -1.00000000
v 0.0000000e+0 1.00000000 -1.00000000
v 1.00000000 -1.00000000 0.0000000e+0
v 1.00000000 -1.00000000 1.00000000
v 1.00000000 -0.50000000 -1.00000000
v 1.00000000 0.50000000 -1.00000000
v 1.00000000 1.00000000 0.0000000e+0
v 1.00000000 1.00000000 1.00000000
vt 9.9611734e-4 0.65759189
vt 9.9611734e-4 0.82425855
vt 0.12589259 9.5778903e-2
vt 0.12589259 0.26115855
vt 0.12589259 0.43687442
vt 0.12606080 9.5937310e-2
vt 0.12606080 0.26131696
vt 0.12606080 0.43703283
vt 0.16766278 0.57425855
vt 0.16766278 0.90759189
vt 0.29255926 0.43704580
vt 0.29272747 0.43720421
vt 0.33421752 0.57416925
vt 0.33421752 0.90750258
vt 0.33432945 0.57425855
vt 0.33432945 0.90759189
vt 0.45922593 9.5778903e-2
vt 0.45922593 0.26115855
vt 0.45922593 0.43687442
vt 0.45939414 9.5937310e-2
vt 0.45939414 0.26131696
vt 0.45939414 0.43703283
vt 0.56541363 0.17486434
vt 0.56541363 0.34153100
vt 0.66755086 0.57416925
vt 0.66755086 0.90750258
vt 0.66768398 0.57422010
vt 0.66768398 0.90755343
vt 0.73208029 9.1531004e-2
vt 0.73208029 0.42486434
vt 0.83435065 0.57422010
vt 0.83435065 0.90755343
vt 0.89787315 0.17486434
vt 0.89787315 0.34153100
vt 0.99977141 0.65755343
vt 0.99977141 0.82422010
vn -0.60325553 -0.77813807 -0.17488254
vn -0.57735027 -0.57735027 0.57735027
vn -0.65425704 -0.37933555 -0.65425704
vn -0.65425704 0.37933555 -0.65425704
vn -0.60325553 0.77813807 -0.17488254
vn -0.57735027 0.57735027 0.57735027
vn 0.0000000e+0 -0.82311938 -0.56786837
vn 0.0000000e+0 0.82311938 -0.56786837
vn 0.60325553 -0.77813807 -0.17488254
vn 0.57735027 -0.57735027 0.57735027
vn 0.65425704 -0.37933555 -0.65425704
vn 0.65425704 0.37933555 -0.65425704
vn 0.60325553 0.77813807 -0.17488254
vn 0.57735027 0.57735027 0.57735027
g bs_corner2_next_bs_corner2_next
usemtl bs_corner2_next
s 1
f 1/18/1 7/11/7 9/4/9 10/3/10 2/17/2
f 2/15/2 6/16/6 5/10/5 4/2/4 3/1/3 1/9/1
f 2/13/2 10/25/10 14/26/14 6/14/6
f 3/19/3 7/11/7 1/18/1
f 4/34/4 8/30/8 12/24/12 11/23/11 7/29/7 3/33/3
f 5/7/5 8/12/8 4/8/4
f 6/6/6 14/20/14 13/21/13 8/12/8 5/7/5
f 7/11/7 11/5/11 9/4/9
f 9/31/9 11/35/11 12/36/12 13/32/13 14/28/14 10/27/10
f 13/21/13 12/22/12 8/12/8
