# Exported from Wings 3D 1.4.1
mtllib bs_corner2_side1.mtl
o bs_corner2_side1
#14 vertices, 12 faces
v -1.1102230e-16 -1.00000000 -1.00000000
v 1.00000000 -0.50000000 -1.00000000
v -1.00000000 -0.50000000 -1.00000000
v 1.00000000 0.50000000 -1.00000000
v -1.00000000 0.50000000 -1.00000000
v -1.1102230e-16 1.00000000 -1.00000000
v 1.00000000 -1.00000000 0.0000000e+0
v -1.00000000 -1.00000000 1.1102230e-16
v 1.00000000 1.00000000 0.0000000e+0
v -1.00000000 1.00000000 1.1102230e-16
v 1.00000000 -0.50000000 1.00000000
v -1.00000000 -0.50000000 1.00000000
v 1.00000000 0.50000000 1.00000000
v -1.00000000 0.50000000 1.00000000
vt 0.12893899 0.30920097
vt 0.12917678 0.30926992
vt 0.12971424 0.14253431
vt 0.12971424 0.47586764
vt 0.12995203 0.14260325
vt 0.12995203 0.47593658
vt 0.29431864 0.14253431
vt 0.29431864 0.47586764
vt 0.29455642 0.14260325
vt 0.29455642 0.47593658
vt 0.33176766 0.70777198
vt 0.33176766 0.87443864
vt 0.33226981 0.70816594
vt 0.33226981 0.87483261
vt 0.33262668 0.70816594
vt 0.33262668 0.87483261
vt 0.47003451 0.14253431
vt 0.47003451 0.47586764
vt 0.47027230 0.14260325
vt 0.47027230 0.47593658
vt 0.49843432 0.62443864
vt 0.49843432 0.95777198
vt 0.49893648 0.62483261
vt 0.49893648 0.95816594
vt 0.49929334 0.62483261
vt 0.49929334 0.95816594
vt 0.55040713 0.21312755
vt 0.55040713 0.37979422
vt 0.66510099 0.70777198
vt 0.66510099 0.87443864
vt 0.66560314 0.70816594
vt 0.66560314 0.87483261
vt 0.66596001 0.70816594
vt 0.66596001 0.87483261
vt 0.88374046 0.21312755
vt 0.88374046 0.37979422
vn -1.7353750e-17 -0.82311938 -0.56786837
vn 0.65425704 -0.37933555 -0.65425704
vn -0.65425704 -0.37933555 -0.65425704
vn 0.65425704 0.37933555 -0.65425704
vn -0.65425704 0.37933555 -0.65425704
vn -1.7353750e-17 0.82311938 -0.56786837
vn 0.46094620 -0.88733643 1.2754078e-2
vn -0.46094620 -0.88733643 1.2754078e-2
vn 0.46094620 0.88733643 1.2754078e-2
vn -0.46094620 0.88733643 1.2754078e-2
vn 0.50673185 -0.45323475 0.73334923
vn -0.50673185 -0.45323475 0.73334923
vn 0.50673185 0.45323475 0.73334923
vn -0.50673185 0.45323475 0.73334923
g bs_corner2_side1_bs_corner2_side1
usemtl bs_corner2_side1
s 1
f 2/13/2 1/23/1 3/31/3 5/32/5 6/24/6 4/14/4
f 2/33/2 4/34/4 9/26/9 13/16/13 11/15/11 7/25/7
f 3/11/3 8/21/8 12/29/12 14/30/14 10/22/10 5/12/5
f 6/2/6 9/10/9 4/6/4
f 7/8/7 1/1/1 2/4/2
f 7/8/7 11/18/11 12/17/12 8/7/8
f 8/7/8 1/1/1 7/8/7
f 8/7/8 3/3/3 1/1/1
f 9/10/9 6/2/6 10/9/10
f 10/9/10 6/2/6 5/5/5
f 10/9/10 14/19/14 13/20/13 9/10/9
f 11/35/11 13/36/13 14/28/14 12/27/12
