# Exported from Wings 3D 1.4.1
mtllib bs_side2_opp.mtl
o bs_side2_opp
#12 vertices, 8 faces
v -1.00000000 -1.00000000 0.0000000e+0
v -1.00000000 -0.50000000 -1.00000000
v -1.00000000 -0.50000000 1.00000000
v -1.00000000 0.50000000 -1.00000000
v -1.00000000 0.50000000 1.00000000
v -1.00000000 1.00000000 0.0000000e+0
v 1.00000000 -1.00000000 0.0000000e+0
v 1.00000000 -0.50000000 -1.00000000
v 1.00000000 -0.50000000 1.00000000
v 1.00000000 0.50000000 -1.00000000
v 1.00000000 0.50000000 1.00000000
v 1.00000000 1.00000000 0.0000000e+0
vt 0.0000000e+0 0.40000000
vt 0.0000000e+0 0.40000000
vt 0.0000000e+0 0.60000000
vt 0.0000000e+0 0.80000000
vt 0.0000000e+0 1.00000000
vt 2.7755576e-17 0.60000000
vt 5.5511151e-17 0.20000000
vt 8.3266727e-17 0.0000000e+0
vt 0.40000000 0.40000000
vt 0.40000000 0.60000000
vt 0.40000000 0.60000000
vt 0.40000000 0.70000000
vt 0.40000000 0.80000000
vt 0.40000000 0.90000000
vt 0.40000000 1.00000000
vt 0.40000000 0.20000000
vt 0.40000000 0.0000000e+0
vt 0.40000000 8.3266727e-17
vt 0.40000000 0.20000000
vt 0.40000000 0.30000000
vt 0.40000000 0.50000000
vt 0.60000000 0.60000000
vt 0.60000000 1.00000000
vt 0.60000000 0.20000000
vt 0.60000000 0.60000000
vt 0.80000000 0.70000000
vt 0.80000000 0.90000000
vt 0.80000000 0.0000000e+0
vt 0.80000000 0.20000000
vt 0.80000000 0.30000000
vt 0.80000000 0.50000000
vn -0.48795004 -0.87287156 0.0000000e+0
vn -0.50673185 -0.45323475 -0.73334923
vn -0.50673185 -0.45323475 0.73334923
vn -0.50673185 0.45323475 -0.73334923
vn -0.50673185 0.45323475 0.73334923
vn -0.48795004 0.87287156 0.0000000e+0
vn 0.48795004 -0.87287156 0.0000000e+0
vn 0.50673185 -0.45323475 -0.73334923
vn 0.50673185 -0.45323475 0.73334923
vn 0.50673185 0.45323475 -0.73334923
vn 0.50673185 0.45323475 0.73334923
vn 0.48795004 0.87287156 0.0000000e+0
g bs_side2_opp_bs_side2_opp
usemtl bs_side2_opp
s 1
f 1/16/1 2/9/2 8/1/8 7/7/7
f 2/12/2 1/22/1 3/26/3 5/27/5 6/23/6 4/14/4
f 3/17/3 9/28/9 11/29/11 5/19/5
f 4/10/4 10/6/10 8/2/8 2/9/2
f 7/7/7 9/8/9 3/18/3 1/16/1
f 8/30/8 10/31/10 12/25/12 11/21/11 9/20/9 7/24/7
f 11/11/11 12/13/12 6/4/6 5/3/5
f 12/13/12 10/15/10 4/5/4 6/4/6
