# Exported from Wings 3D 1.4.1
mtllib bw_cube.mtl
o bw_cube
#8 vertices, 6 faces
v -1.00000000 -9.1868000e-2 1.00000000
v -1.00000000 9.1868000e-2 1.00000000
v 1.00000000 9.1868000e-2 1.00000000
v 1.00000000 -9.1868000e-2 1.00000000
v -1.00000000 -9.1868000e-2 -1.00000000
v -1.00000000 9.1868000e-2 -1.00000000
v 1.00000000 9.1868000e-2 -1.00000000
v 1.00000000 -9.1868000e-2 -1.00000000
vt 0.0000000e+0 1.8561541e-16
vt 0.0000000e+0 3.0622667e-2
vt 0.0000000e+0 0.36395600
vt 0.0000000e+0 0.39457867
vt 1.1102230e-16 3.0622667e-2
vt 1.1102230e-16 0.72791200
vt 0.33333333 3.0622667e-2
vt 0.33333333 3.0622667e-2
vt 0.33333333 0.36395600
vt 0.33333333 0.72791200
vt 0.33333333 0.39457867
vt 0.33333333 0.0000000e+0
vt 0.66666667 2.4112656e-16
vt 0.66666667 3.0622667e-2
vt 1.00000000 1.8561541e-16
vt 1.00000000 3.0622667e-2
vn -0.57735027 -0.57735027 0.57735027
vn -0.57735027 0.57735027 0.57735027
vn 0.57735027 0.57735027 0.57735027
vn 0.57735027 -0.57735027 0.57735027
vn -0.57735027 -0.57735027 -0.57735027
vn -0.57735027 0.57735027 -0.57735027
vn 0.57735027 0.57735027 -0.57735027
vn 0.57735027 -0.57735027 -0.57735027
g bw_cube_bw_cube
usemtl bw_cube
s 1
f 1/3/1 4/9/4 3/11/3 2/4/2
f 1/3/1 5/5/5 8/8/8 4/9/4
f 2/16/2 6/14/6 5/13/5 1/15/1
f 3/11/3 7/10/7 6/6/6 2/4/2
f 4/1/4 8/12/8 7/7/7 3/2/3
f 6/14/6 7/7/7 8/12/8 5/13/5
