# Exported from Wings 3D 1.4.1
mtllib bw_triangle.mtl
o bw_triangle
#6 vertices, 5 faces
v -1.00000000 9.1868000e-2 -1.00000000
v -1.00000000 -9.1868000e-2 -1.00000000
v 1.00000000 -9.1868000e-2 1.00000000
v 1.00000000 9.1868000e-2 1.00000000
v -1.00000000 9.1868000e-2 1.00000000
v -1.00000000 -9.1868000e-2 1.00000000
vt 0.21141111 0.26052013
vt 0.21141111 0.28808053
vt 0.29669913 0.59182975
vt 0.29669913 0.61939015
vt 0.50883117 0.37969771
vt 0.50883117 0.83152218
vt 0.51141111 0.28808053
vt 0.51141111 0.26052013
vt 0.72096320 0.61939015
vt 0.72096320 0.59182975
vt 0.81141111 0.26052013
vt 0.81141111 0.28808053
vn -0.23258782 0.79410449 -0.56151667
vn -0.23258782 -0.79410449 -0.56151667
vn 0.56151667 -0.79410449 0.23258782
vn 0.56151667 0.79410449 0.23258782
vn -0.57735027 0.57735027 0.57735027
vn -0.57735027 -0.57735027 0.57735027
g bw_triangle_bw_triangle
usemtl bw_triangle
s 1
f 1/9/1 4/4/4 3/3/3 2/10/2
f 2/10/2 3/3/3 6/5/6
f 2/1/2 6/8/6 5/7/5 1/2/1
f 4/12/4 5/7/5 6/8/6 3/11/3
f 5/6/5 4/4/4 1/9/1
