# Exported from Wings 3D 1.4.1
mtllib rocket_fat.mtl
o rocket_fat
#43 vertices, 43 faces
v 0.55914646 -2.3905325e-4 -0.22969640
v 0.27957323 0.48399598 -0.22969640
v -0.27957323 0.48399598 -0.22969640
v -0.55914646 -2.3905325e-4 -0.22969640
v -0.27957323 -0.48447409 -0.22969640
v 0.27957323 -0.48447409 -0.22969640
v 0.23036834 0.39877062 -0.82969640
v 0.46073668 -2.3905325e-4 -0.82969640
v 0.23036834 -0.39924872 -0.82969640
v -0.23036834 -0.39924872 -0.82969640
v -0.46073668 -2.3905325e-4 -0.82969640
v -0.23036834 0.39877062 -0.82969640
v 0.44027280 -2.3905325e-4 0.37030360
v 0.22013640 0.38104838 0.37030360
v -0.22013640 0.38104838 0.37030360
v -0.44027280 -2.3905325e-4 0.37030360
v -0.22013640 -0.38152648 0.37030360
v 0.22013640 -0.38152648 0.37030360
v -1.1231246e-16 -2.3905325e-4 -1.42969640
v 0.45327027 0.15122738 -0.13668841
v 0.35780891 0.31657130 -0.13668841
v 0.31679908 0.24554019 0.27729561
v 0.37125061 0.15122738 0.27729561
v -0.35780891 0.31657130 -0.13668841
v -0.45327027 0.15122738 -0.13668841
v -0.37125061 0.15122738 0.27729561
v -0.31679908 0.24554019 0.27729561
v -9.5461358e-2 -0.46851584 -0.13668841
v 9.5461358e-2 -0.46851584 -0.13668841
v 5.4451530e-2 -0.39748473 0.27729561
v -5.4451530e-2 -0.39748473 0.27729561
v -8.7633527e-2 -0.83697321 0.18639037
v 8.7633527e-2 -0.83697321 0.18639037
v 5.4451530e-2 -0.84068306 0.60037438
v -5.4451530e-2 -0.84068306 0.60037438
v -0.68081627 0.49402088 0.18639037
v -0.76844980 0.34223516 0.18639037
v -0.75507162 0.37282654 0.60037438
v -0.70062009 0.46713936 0.60037438
v 0.76844980 0.34223516 0.18639037
v 0.68081627 0.49402088 0.18639037
v 0.70062009 0.46713936 0.60037438
v 0.75507162 0.37282654 0.60037438
vt 1.8094707e-2 0.31926714
vt 1.9519439e-2 0.32017007
vt 4.5376702e-2 2.2576842e-2
vt 4.5421939e-2 2.1374624e-2
vt 9.9079118e-2 0.27348985
vt 0.11341294 0.58463550
vt 0.11369462 0.58585698
vt 0.12613448 7.0866030e-2
vt 0.14395469 0.69594580
vt 0.14409955 0.69588557
vt 0.14415900 0.69583581
vt 0.16072769 0.86755827
vt 0.16075228 0.86746575
vt 0.16081265 0.86750388
vt 0.17858301 0.25669308
vt 0.18162683 7.2333743e-2
vt 0.25532982 0.28983862
vt 0.25542021 0.28875410
vt 0.26507498 3.4567653e-2
vt 0.26507884 3.2868622e-2
vt 0.28181506 0.51465606
vt 0.28248641 0.51565351
vt 0.32501825 0.98754405
vt 0.32511931 0.98746449
vt 0.32516241 0.98746747
vt 0.32805685 0.25163998
vt 0.33381580 7.0952969e-2
vt 0.33936607 0.81283175
vt 0.33944787 0.81292633
vt 0.33947012 0.81283972
vt 0.36512050 0.80056878
vt 0.36558309 0.80164942
vt 0.38318602 0.81396811
vt 0.38323567 0.81388948
vt 0.38352861 0.81387247
vt 0.39130551 0.98891270
vt 0.39137915 0.98891303
vt 0.39163496 0.98897719
vt 0.39402478 7.0881126e-2
vt 0.39865440 0.25157830
vt 0.44799973 0.51485222
vt 0.44863305 0.51563075
vt 0.46568562 3.4463893e-2
vt 0.46607826 3.3491687e-2
vt 0.47531293 0.28867904
vt 0.47574380 0.28975905
vt 0.54905946 7.2534363e-2
vt 0.55260358 0.25633696
vt 0.55985530 0.87481705
vt 0.55991172 0.87458733
vt 0.56002025 0.87516982
vt 0.58236534 0.70362532
vt 0.58260727 0.70389449
vt 0.58313015 0.70429529
vt 0.60468563 7.1158079e-2
vt 0.60551640 0.81188945
vt 0.61695521 0.58404519
vt 0.61744167 0.58581754
vt 0.63229996 0.27322448
vt 0.68552088 2.1520061e-2
vt 0.68583201 2.2576842e-2
vt 0.69691036 0.65359047
vt 0.69691036 0.97018843
vt 0.70754711 0.32044389
vt 0.70794634 0.32129042
vt 0.87969828 0.65359047
vt 0.87969828 0.97018843
vt 0.90754097 1.1472884e-2
vt 0.90793426 1.1818698e-2
vt 0.90838914 1.1162916e-2
vt 0.91061257 0.21492605
vt 0.91100585 0.21527187
vt 0.91146074 0.21461609
vt 0.92403856 0.61452105
vt 0.92423810 0.38681858
vt 0.92443185 0.61486686
vt 0.92463139 0.38716439
vt 0.92488673 0.61421108
vt 0.92508627 0.38650861
vt 0.96925180 0.61456067
vt 0.96945133 0.38685820
vt 0.96964509 0.61490648
vt 0.96984462 0.38720401
vt 0.97009997 0.61425070
vt 0.97029950 0.38654823
vt 0.97109224 0.81188945
vt 0.98337811 0.21498982
vt 0.98377139 0.21533563
vt 0.98422628 0.21467985
vt 0.98680627 1.1542344e-2
vt 0.98719956 1.1888158e-2
vt 0.98765444 1.1232376e-2
vn 0.99205528 0.11434549 5.2454074e-2
vn 0.59505374 0.80197233 5.2454074e-2
vn -0.59505374 0.80197233 5.2454074e-2
vn -0.99205528 0.11434549 5.2454074e-2
vn -0.39700154 -0.91631782 5.2454074e-2
vn 0.39700154 -0.91631782 5.2454074e-2
vn 0.45767681 0.79271950 -0.40265089
vn 0.91535363 -1.4485211e-16 -0.40265089
vn 0.45767681 -0.79271950 -0.40265089
vn -0.45767681 -0.79271950 -0.40265089
vn -0.91535363 2.0923082e-16 -0.40265089
vn -0.45767681 0.79271950 -0.40265089
vn 0.85016591 0.16361451 0.50044802
vn 0.56677727 0.65445802 0.50044802
vn -0.56677727 0.65445802 0.50044802
vn -0.85016591 0.16361451 0.50044802
vn -0.28338864 -0.81807253 0.50044802
vn 0.28338864 -0.81807253 0.50044802
vn -1.3192670e-16 1.0024617e-16 -1.00000000
vn 0.98110035 0.15296296 -0.11850925
vn 0.62301998 0.77317635 -0.11850925
vn 0.31481495 0.73837475 0.59640110
vn 0.79685877 -9.6549636e-2 0.59640110
vn -0.62301998 0.77317635 -0.11850925
vn -0.98110035 0.15296296 -0.11850925
vn -0.79685877 -9.6549636e-2 0.59640110
vn -0.31481495 0.73837475 0.59640110
vn -0.35808037 -0.92613930 -0.11850925
vn 0.35808037 -0.92613930 -0.11850925
vn 0.48204382 -0.64182512 0.59640110
vn -0.48204382 -0.64182512 0.59640110
vn -0.49662161 -0.79958496 -0.33768457
vn 0.49662161 -0.79958496 -0.33768457
vn 0.72261903 -0.25661239 0.64185032
vn -0.72261903 -0.25661239 0.64185032
vn -0.44415009 0.82987941 -0.33768457
vn -0.94077169 -3.0294445e-2 -0.33768457
vn -0.58354236 -0.49750024 0.64185032
vn 0.13907667 0.75411263 0.64185032
vn 0.94077169 -3.0294445e-2 -0.33768457
vn 0.44415009 0.82987941 -0.33768457
vn -0.13907667 0.75411263 0.64185032
vn 0.58354236 -0.49750024 0.64185032
g rocket_fat_rocket_fat_auv
usemtl rocket_fat_auv
s 1
f 1/65/1 8/58/8 7/42/7 2/46/2
f 1/2/1 13/4/13 18/20/18 6/18/6
f 1/65/1 20/59/20 23/55/23 13/61/13
f 2/46/2 7/42/7 12/22/12 3/17/3
f 2/46/2 21/48/21 20/59/20 1/65/1
f 3/17/3 12/22/12 11/7/11 4/1/4
f 3/17/3 15/19/15 14/43/14 2/46/2
f 3/17/3 24/15/24 27/16/27 15/19/15
f 4/64/4 11/57/11 10/41/10 5/45/5
f 4/1/4 25/5/25 24/15/24 3/17/3
f 5/45/5 10/41/10 9/21/9 6/18/6
f 5/45/5 17/44/17 16/60/16 4/64/4
f 5/45/5 28/40/28 31/39/31 17/44/17
f 6/18/6 9/21/9 8/6/8 1/2/1
f 6/18/6 29/26/29 28/40/28 5/45/5
f 7/42/7 19/32/19 12/22/12
f 8/58/8 19/32/19 7/42/7
f 9/21/9 19/31/19 8/6/8
f 10/41/10 19/31/19 9/21/9
f 11/57/11 19/31/19 10/41/10
f 12/22/12 19/32/19 11/7/11
f 13/61/13 23/55/23 22/47/22 14/43/14
f 14/67/14 15/63/15 16/56/16 17/62/17 18/66/18 13/86/13
f 14/43/14 22/47/22 21/48/21 2/46/2
f 15/19/15 27/16/27 26/8/26 16/3/16
f 16/3/16 26/8/26 25/5/25 4/1/4
f 17/44/17 31/39/31 30/27/30 18/20/18
f 18/20/18 30/27/30 29/26/29 6/18/6
f 20/24/20 40/12/40 43/9/43 23/28/23
f 21/91/21 41/88/41 40/72/40 20/69/20
f 22/33/22 42/52/42 41/50/41 21/38/21
f 23/76/23 43/77/43 42/83/42 22/82/22
f 24/23/24 36/13/36 39/11/39 27/29/27
f 25/90/25 37/87/37 36/71/36 24/68/24
f 26/34/26 38/53/38 37/49/37 25/37/25
f 27/74/27 39/75/39 38/81/38 26/80/26
f 28/25/28 32/14/32 35/10/35 31/30/31
f 29/92/29 33/89/33 32/73/32 28/70/28
f 30/35/30 34/54/34 33/51/33 29/36/29
f 31/78/31 35/79/35 34/85/34 30/84/30
f 33/89/33 34/85/34 35/79/35 32/73/32
f 37/87/37 38/81/38 39/75/39 36/71/36
f 41/88/41 42/83/42 43/77/43 40/72/40
